<svg width="24" height="20" viewBox="0 0 24 20" fill="none" xmlns="http://www.w3.org/2000/svg">
<path d="M22.2338 19H1.76619L12 1.94365L22.2338 19Z" stroke="#FFDD33" stroke-width="2"/>
<path d="M11.3666 13.0721C11.3513 13.0721 11.3366 13.0703 11.3225 13.0669C11.2765 13.0554 11.2392 13.0181 11.2278 12.9722C11.2243 12.9581 11.2226 12.9434 11.2226 12.9281L11.0186 7.7441C11.0186 7.6481 11.0666 7.6001 11.1626 7.6001H12.8666C12.9626 7.6001 13.0106 7.6481 13.0106 7.7441L12.8066 12.9281C12.8066 12.9681 12.7906 13.0041 12.7586 13.0361C12.7346 13.0601 12.7026 13.0721 12.6626 13.0721H11.3666ZM11.9306 15.9881C11.6266 15.9881 11.3746 15.8921 11.1746 15.7001C10.9826 15.5001 10.8866 15.2481 10.8866 14.9441C10.8866 14.6401 10.9826 14.3921 11.1746 14.2001C11.3746 14.0081 11.6266 13.9121 11.9306 13.9121C12.2346 13.9121 12.4826 14.0081 12.6746 14.2001C12.8746 14.3921 12.9746 14.6401 12.9746 14.9441C12.9746 15.2401 12.8746 15.4881 12.6746 15.6881C12.4826 15.8881 12.2346 15.9881 11.9306 15.9881Z" fill="#FFDD33"/>
</svg>
